<?xml version="1.0" encoding="UTF-8"?>
<svg id="Capa_2" data-name="Capa 2" xmlns="http://www.w3.org/2000/svg" viewBox="0 0 1520.54 671.78">
  <g id="ISOGrid">
    <g id="Mesa_de_trabajo_3_iso_grid" data-name="Mesa de trabajo 3 iso grid">
      <g>
        <g>
          <path d="M446.44,388.3h135.8c-.34,13.18-1.56,26.14-3.61,38.83-2.12,13.26-5.15,26.23-9.02,38.83-4.09,13.38-9.12,26.35-15.03,38.83-3.4,7.22-7.1,14.28-11.07,21.15-3.48,6.03-7.17,11.93-11.07,17.68-8.36,12.36-17.64,24.04-27.76,34.94-1.21,1.3-2.44,2.6-3.68,3.89-10.85,11.28-22.61,21.69-35.15,31.1-3.53,2.66-7.13,5.24-10.79,7.73-8.99,6.15-18.36,11.8-28.04,16.91-12.43,6.58-25.41,12.28-38.83,17.02-5,1.77-10.06,3.4-15.18,4.9-7.75,2.27-15.64,4.22-23.65,5.84-12.67,2.58-25.63,4.33-38.83,5.2-6.41.42-12.89.64-19.41.64s-13-.22-19.41-.64c-13.2-.87-26.16-2.62-38.83-5.2-8.01-1.62-15.9-3.57-23.65-5.84-5.13-1.5-10.18-3.13-15.18-4.9-13.42-4.74-26.4-10.44-38.83-17.02-9.68-5.12-19.05-10.76-28.04-16.91-3.66-2.49-7.25-5.06-10.79-7.73-12.54-9.41-24.3-19.83-35.15-31.1-1.24-1.29-2.47-2.59-3.68-3.89-10.12-10.9-19.41-22.58-27.76-34.94-3.9-5.75-7.59-11.64-11.07-17.68-3.98-6.87-7.67-13.93-11.07-21.15-5.9-12.48-10.93-25.45-15.03-38.83-3.87-12.6-6.9-25.57-9.02-38.83-2.05-12.69-3.27-25.65-3.61-38.83h135.8c0,13.41,1.7,26.42,4.9,38.83,3.3,12.86,8.22,25.08,14.51,36.42.45.81.9,1.61,1.37,2.41,8.45,14.62,19.22,27.72,31.8,38.83,1.85,1.63,3.74,3.22,5.66,4.77,11.68,9.36,24.74,17.07,38.83,22.77,12.25,4.96,25.26,8.4,38.83,10.09,6.36.79,12.84,1.2,19.41,1.2s13.05-.41,19.41-1.2c13.57-1.69,26.58-5.13,38.83-10.09,14.09-5.7,27.15-13.41,38.83-22.77,1.93-1.55,3.81-3.14,5.66-4.77,12.58-11.11,23.35-24.21,31.8-38.83.47-.8.92-1.6,1.37-2.41,6.3-11.35,11.21-23.56,14.51-36.42,3.2-12.41,4.9-25.42,4.9-38.83Z"/>
          <polygon points="582.73 232.98 582.73 349.47 .29 349.47 .29 232.98 155.61 232.98 116.78 194.15 91.51 168.88 77.95 155.32 39.12 116.49 116.78 38.83 233.26 155.32 233.26 0 349.75 0 349.75 155.32 466.24 38.83 543.9 116.49 505.07 155.32 491.51 168.88 466.24 194.15 427.41 232.98 582.73 232.98"/>
        </g>
        <g>
          <g>
            <path d="M778.39,317.55c-17.42,0-32.34-2.66-44.76-7.97-12.42-5.32-21.91-13.11-28.48-23.39-6.57-10.27-9.9-22.83-9.98-37.66h45.83c.27,6.34,1.96,11.77,5.09,16.28,3.13,4.51,7.46,7.95,13,10.32,5.54,2.37,12.06,3.55,19.57,3.55,6.79,0,12.66-.89,17.62-2.68,4.96-1.79,8.82-4.31,11.59-7.57,2.77-3.26,4.15-7.04,4.15-11.32,0-3.84-1.18-7.15-3.55-9.92-2.37-2.77-6.05-5.2-11.06-7.3-5-2.1-11.44-3.95-19.3-5.56l-20.5-4.42c-19.03-3.93-33.5-10.61-43.42-20.03s-14.88-21.46-14.88-36.12c0-12.42,3.3-23.27,9.92-32.56,6.61-9.29,15.81-16.53,27.61-21.71,11.79-5.18,25.42-7.77,40.87-7.77s29.48,2.61,41.01,7.84c11.52,5.23,20.48,12.66,26.87,22.31,6.39,9.65,9.76,21.17,10.12,34.57h-44.89c-.63-8.04-3.84-14.36-9.65-18.96-5.81-4.6-13.49-6.9-23.05-6.9-5.99,0-11.28.87-15.88,2.61-4.6,1.74-8.15,4.18-10.65,7.3-2.5,3.13-3.75,6.7-3.75,10.72s1.12,7.08,3.35,9.72c2.23,2.64,5.69,4.94,10.39,6.9,4.69,1.97,10.65,3.71,17.89,5.23l17.56,3.62c10.72,2.14,20.01,4.91,27.87,8.31,7.86,3.4,14.38,7.46,19.57,12.19,5.18,4.74,9.02,10.18,11.52,16.35,2.5,6.16,3.75,13.13,3.75,20.91,0,13.22-3.22,24.55-9.65,33.97-6.43,9.43-15.73,16.64-27.87,21.64-12.15,5-26.76,7.5-43.82,7.5Z"/>
            <path d="M972.31,317.55c-18.05,0-34.29-4.06-48.71-12.19-14.43-8.13-25.82-19.85-34.17-35.18-8.35-15.32-12.53-33.79-12.53-55.41s4.18-40.38,12.53-55.75c8.35-15.37,19.74-27.09,34.17-35.18,14.43-8.09,30.66-12.13,48.71-12.13s34.13,4.04,48.51,12.13c14.38,8.09,25.8,19.81,34.24,35.18,8.44,15.37,12.66,33.95,12.66,55.75s-4.22,40.23-12.66,55.55c-8.44,15.32-19.86,27.03-34.24,35.11-14.39,8.09-30.55,12.13-48.51,12.13ZM972.31,275.6c9.56,0,17.84-2.37,24.86-7.1,7.01-4.73,12.44-11.66,16.28-20.77,3.84-9.11,5.76-20.1,5.76-32.97s-1.92-24.01-5.76-33.17c-3.84-9.16-9.27-16.1-16.28-20.84-7.01-4.73-15.3-7.1-24.86-7.1s-17.85,2.37-24.86,7.1c-7.01,4.74-12.44,11.68-16.28,20.84-3.84,9.16-5.76,20.22-5.76,33.17s1.92,23.85,5.76,32.97c3.84,9.11,9.27,16.04,16.28,20.77,7.01,4.74,15.3,7.1,24.86,7.1Z"/>
            <path d="M1089.03,314.47V114.79h82.15c15.28,0,28.52,2.73,39.73,8.17,11.21,5.45,19.83,13.2,25.87,23.25,6.03,10.05,9.05,22,9.05,35.85s-3.15,25.15-9.45,34.98c-6.3,9.83-15.21,17.38-26.73,22.65-11.52,5.27-25.15,7.91-40.87,7.91h-50.66v-37.79h48.24c6.7,0,12.42-1.12,17.15-3.35,4.73-2.23,8.4-5.43,10.99-9.58,2.59-4.15,3.89-9.09,3.89-14.81s-1.3-10.79-3.89-14.94c-2.59-4.15-6.25-7.37-10.99-9.65-4.74-2.28-10.45-3.42-17.15-3.42h-29.35v160.41h-47.98ZM1200.39,314.47l-45.43-90.59h49.99l46.5,90.59h-51.06Z"/>
            <path d="M1317.79,114.79v199.68h-47.98V114.79h47.98Z"/>
            <path d="M1344.72,314.47V114.79h50.25l56.55,90.59c2.41,3.93,5.2,8.76,8.38,14.47,3.17,5.72,6.5,11.91,9.98,18.56,3.48,6.66,6.79,13.33,9.92,20.04l-5.36,10.18c-.36-6.79-.72-14.52-1.07-23.18-.36-8.66-.63-17.02-.8-25.06-.18-8.04-.27-14.52-.27-19.43v-86.17h48.24v199.68h-50.39l-51.86-83.09c-2.95-4.82-6.32-10.52-10.12-17.09-3.8-6.57-7.86-13.91-12.19-22.04-4.33-8.13-8.91-16.8-13.74-26l8.31-3.08c.62,9.65,1.12,18.9,1.47,27.74.36,8.84.6,16.77.74,23.79.13,7.01.2,12.58.2,16.68v83.09h-48.24Z"/>
          </g>
          <g>
            <path d="M695.17,556.71v-217.47h52.25v173.39h95.16v44.08h-147.41Z"/>
            <path d="M851.49,556.71l74.29-217.47h69.18l75.02,217.47h-58.53l-29.63-95.45c-4.77-15.96-9.46-32.23-14.08-48.82-4.62-16.59-9.37-34.42-14.23-53.49h13.72c-4.96,19.07-9.73,36.9-14.3,53.49-4.57,16.59-9.29,32.86-14.16,48.82l-30.21,95.45h-57.07ZM902.42,513.95v-40.72h116.76v40.72h-116.76Z"/>
            <path d="M1086.76,556.71v-217.47h90.34c16.15,0,29.75,2.34,40.79,7.01,11.04,4.67,19.41,11.14,25.1,19.41,5.69,8.27,8.54,17.86,8.54,28.75,0,8.27-1.7,15.71-5.11,22.33-3.41,6.62-8.13,12.09-14.16,16.42-6.03,4.33-13.14,7.37-21.31,9.12v.73c9.05.58,17.22,3.06,24.52,7.44,7.3,4.38,13.09,10.39,17.37,18.03,4.28,7.64,6.42,16.62,6.42,26.93,0,11.87-2.92,22.43-8.76,31.67-5.84,9.25-14.4,16.49-25.69,21.75-11.29,5.25-25.01,7.88-41.16,7.88h-96.91ZM1137.99,427.84h33.28c5.64,0,10.56-.97,14.74-2.92,4.18-1.95,7.39-4.74,9.63-8.39,2.24-3.65,3.36-7.9,3.36-12.77,0-7.39-2.46-13.26-7.37-17.59-4.91-4.33-11.6-6.5-20.07-6.5h-33.57v48.16ZM1137.99,516.14h36.34c9.92,0,17.64-2.21,23.13-6.64,5.5-4.43,8.25-10.53,8.25-18.32,0-5.35-1.24-10-3.72-13.94-2.48-3.94-6.03-6.98-10.65-9.12-4.62-2.14-10.14-3.21-16.57-3.21h-36.78v51.23Z"/>
            <path d="M1367.13,560.07c-18.97,0-35.22-2.9-48.75-8.68-13.53-5.79-23.86-14.28-31.02-25.47-7.15-11.19-10.78-24.86-10.87-41.01h49.92c.29,6.91,2.14,12.82,5.55,17.73,3.4,4.91,8.12,8.66,14.16,11.24,6.03,2.58,13.14,3.87,21.31,3.87,7.39,0,13.79-.97,19.19-2.92,5.4-1.95,9.61-4.69,12.63-8.25,3.01-3.55,4.52-7.66,4.52-12.33,0-4.18-1.29-7.78-3.87-10.8-2.58-3.01-6.59-5.67-12.04-7.95-5.45-2.29-12.46-4.31-21.02-6.06l-22.33-4.82c-20.72-4.28-36.49-11.55-47.29-21.82-10.8-10.27-16.2-23.38-16.2-39.33,0-13.52,3.6-25.35,10.8-35.47,7.2-10.12,17.22-18,30.07-23.64,12.84-5.64,27.68-8.47,44.51-8.47s32.11,2.85,44.66,8.54c12.55,5.69,22.31,13.79,29.26,24.3,6.96,10.51,10.63,23.06,11.02,37.66h-48.89c-.68-8.76-4.18-15.64-10.51-20.65-6.33-5.01-14.69-7.52-25.1-7.52-6.52,0-12.28.95-17.3,2.85-5.01,1.9-8.88,4.55-11.6,7.95-2.73,3.41-4.09,7.3-4.09,11.68s1.22,7.71,3.65,10.58c2.43,2.87,6.2,5.38,11.31,7.52,5.11,2.14,11.6,4.04,19.48,5.69l19.12,3.94c11.68,2.34,21.79,5.35,30.36,9.05,8.56,3.7,15.66,8.13,21.31,13.28,5.64,5.16,9.83,11.09,12.55,17.81,2.72,6.71,4.09,14.3,4.09,22.77,0,14.4-3.5,26.73-10.51,37-7.01,10.27-17.13,18.12-30.36,23.57-13.23,5.45-29.14,8.17-47.73,8.17Z"/>
          </g>
        </g>
      </g>
    </g>
  </g>
</svg>