<?xml version="1.0" encoding="UTF-8"?>
<svg id="Capa_2" data-name="Capa 2" xmlns="http://www.w3.org/2000/svg" viewBox="0 0 558.93 644.34">
  <g id="ISOGrid">
    <g id="Mesa_de_trabajo_3_iso_grid" data-name="Mesa de trabajo 3 iso grid">
      <g>
        <path d="M428.21,372.44h130.26c-.33,12.64-1.5,25.07-3.46,37.24-2.03,12.72-4.94,25.16-8.65,37.24-3.93,12.83-8.75,25.27-14.41,37.24-3.26,6.93-6.81,13.7-10.62,20.29-3.34,5.79-6.88,11.44-10.61,16.95-8.01,11.85-16.92,23.05-26.63,33.51-1.16,1.25-2.34,2.5-3.53,3.73-10.41,10.82-21.68,20.8-33.71,29.83-3.39,2.55-6.84,5.03-10.35,7.41-8.63,5.9-17.61,11.31-26.9,16.22-11.93,6.31-24.37,11.78-37.24,16.32-4.8,1.7-9.65,3.26-14.56,4.7-7.43,2.17-15,4.05-22.68,5.6-12.15,2.47-24.58,4.15-37.24,4.98-6.15.4-12.36.61-18.62.61s-12.47-.21-18.62-.61c-12.66-.83-25.09-2.51-37.24-4.98-7.68-1.55-15.25-3.43-22.68-5.6-4.92-1.44-9.77-3-14.56-4.7-12.87-4.54-25.32-10.01-37.24-16.32-9.29-4.91-18.27-10.32-26.9-16.22-3.51-2.38-6.96-4.86-10.35-7.41-12.03-9.03-23.31-19.02-33.71-29.83-1.19-1.24-2.37-2.48-3.53-3.73-9.71-10.46-18.61-21.66-26.63-33.51-3.74-5.51-7.28-11.17-10.61-16.95-3.81-6.59-7.36-13.36-10.62-20.29-5.66-11.97-10.49-24.41-14.41-37.24-3.71-12.08-6.61-24.52-8.65-37.24-1.97-12.17-3.14-24.6-3.46-37.24h130.26c0,12.86,1.63,25.34,4.7,37.24,3.17,12.34,7.88,24.05,13.92,34.93.43.77.86,1.54,1.31,2.31,8.1,14.02,18.44,26.59,30.5,37.24,1.77,1.56,3.58,3.09,5.43,4.57,11.2,8.98,23.73,16.37,37.24,21.84,11.75,4.76,24.23,8.06,37.24,9.68,6.1.76,12.31,1.15,18.62,1.15s12.52-.39,18.62-1.15c13.01-1.62,25.5-4.92,37.24-9.68,13.51-5.47,26.04-12.86,37.24-21.84,1.85-1.48,3.66-3.01,5.43-4.57,12.07-10.65,22.4-23.23,30.5-37.24.45-.77.88-1.53,1.31-2.31,6.04-10.88,10.76-22.6,13.92-34.93,3.07-11.9,4.7-24.38,4.7-37.24Z"/>
        <polygon points="558.93 223.46 558.93 335.19 .28 335.19 .28 223.46 149.25 223.46 112.01 186.22 87.77 161.98 74.76 148.98 37.52 111.73 112.01 37.24 223.74 148.98 223.74 0 335.47 0 335.47 148.98 447.2 37.24 521.69 111.73 484.45 148.98 471.44 161.98 447.2 186.22 409.96 223.46 558.93 223.46"/>
      </g>
    </g>
  </g>
</svg>